# xmcd
#
# Track frame offsets:
#       183
#       10155
#       20070
#       30255
#       41775
#       60170
#       73483
#       85900
#       97268
#       109888
#
# Disc length: 1602 seconds
#
# Revision: 1
# Processed by: cddbd v1.5.2PL0 Copyright (c) Steve Scherf et al.
# Submitted via: FreeDbEdit v0.1
#
DISCID=8206400a
DTITLE=The Stanley Brothers - Old Country Church
DYEAR=1992
DGENRE=Gospel
TTITLE0=Old Country Church
TTITLE1=Campin' in Canaan Land
TTITLE2=My Sinful Past
TTITLE3=Village Church Yard
TTITLE4=Little Bessie
TTITLE5=A Few More Years
TTITLE6=Mother Call My Name in Prayer
TTITLE7=Working on a Building
TTITLE8=Mother's Only Sleeping
TTITLE9=Kneel at the Cross
EXTD=Highland Music
EXTT0=
EXTT1=
EXTT2=
EXTT3=
EXTT4=
EXTT5=
EXTT6=
EXTT7=
EXTT8=
EXTT9=
PLAYORDER=
